HIERARCHY
ROOT hip
{
  OFFSET 0 0 0
  CHANNELS 6 Xposition Yposition Zposition Zrotation Yrotation Xrotation
  JOINT abdomen
  {
    OFFSET 0 20.6881 -0.73152
    CHANNELS 3 Zrotation Xrotation Yrotation
    JOINT chest
    {
      OFFSET 0 11.7043 -0.48768
      CHANNELS 3 Zrotation Xrotation Yrotation
      JOINT neck
      {
        OFFSET 0 22.1894 -2.19456
        CHANNELS 3 Zrotation Xrotation Yrotation
        JOINT head
        {
          OFFSET -0.24384 7.07133 1.2192
          CHANNELS 3 Zrotation Xrotation Yrotation
          JOINT leftEye
          {
            OFFSET 4.14528 8.04674 8.04672
            CHANNELS 3 Zrotation Xrotation Yrotation
            End Site
            {
              OFFSET 1 0 0
            }
          }
          JOINT rightEye
          {
            OFFSET -3.6576 8.04674 8.04672
            CHANNELS 3 Zrotation Xrotation Yrotation
            End Site
            {
              OFFSET 1 0 0
            }
          }
        }
      }
      JOINT rCollar
      {
        OFFSET -2.68224 19.2634 -4.8768
        CHANNELS 3 Zrotation Xrotation Yrotation
        JOINT rShldr
        {
          OFFSET -8.77824 -1.95073 1.46304
          CHANNELS 3 Zrotation Xrotation Yrotation
          JOINT rForeArm
          {
            OFFSET -28.1742 -1.7115 0.48768
            CHANNELS 3 Zrotation Xrotation Yrotation
            JOINT rHand
            {
              OFFSET -22.5879 0.773209 7.07136
              CHANNELS 3 Zrotation Xrotation Yrotation
              JOINT rThumb1
              {
                OFFSET -1.2192 -0.487915 3.41376
                CHANNELS 3 Zrotation Xrotation Yrotation
                JOINT rThumb2
                {
                  OFFSET -3.37035 -0.52449 3.41376
                  CHANNELS 3 Zrotation Xrotation Yrotation
                  End Site
                  {
                    OFFSET -1.78271 -1.18214 1.43049
                  }
                }
              }
              JOINT rIndex1
              {
                OFFSET -7.75947 0.938293 5.60832
                CHANNELS 3 Zrotation Xrotation Yrotation
                JOINT rIndex2
                {
                  OFFSET -2.54057 -0.884171 1.56538
                  CHANNELS 3 Zrotation Xrotation Yrotation
                  End Site
                  {
                    OFFSET -1.62519 -0.234802 1.16502
                  }
                }
              }
              JOINT rMid1
              {
                OFFSET -8.24714 1.18213 3.41376
                CHANNELS 3 Zrotation Xrotation Yrotation
                JOINT rMid2
                {
                  OFFSET -3.10165 -0.590103 1.0647
                  CHANNELS 3 Zrotation Xrotation Yrotation
                  End Site
                  {
                    OFFSET -2.48547 -0.328903 0.83742
                  }
                }
              }
              JOINT rRing1
              {
                OFFSET -8.82822 0.546677 1.51678
                CHANNELS 3 Zrotation Xrotation Yrotation
                JOINT rRing2
                {
                  OFFSET -2.60934 -0.819778 -0.0198488
                  CHANNELS 3 Zrotation Xrotation Yrotation
                  End Site
                  {
                    OFFSET -2.33842 -0.294052 0.168128
                  }
                }
              }
              JOINT rPinky1
              {
                OFFSET -8.27202 -0.0477905 -0.4584
                CHANNELS 3 Zrotation Xrotation Yrotation
                JOINT rPinky2
                {
                  OFFSET -1.82734 -0.647385 -0.700984
                  CHANNELS 3 Zrotation Xrotation Yrotation
                  End Site
                  {
                    OFFSET -1.69225 -0.51767 -0.607171
                  }
                }
              }
            }
          }
        }
      }
      JOINT lCollar
      {
        OFFSET 2.68224 19.2634 -4.8768
        CHANNELS 3 Zrotation Xrotation Yrotation
        JOINT lShldr
        {
          OFFSET 8.77824 -1.95073 1.46304
          CHANNELS 3 Zrotation Xrotation Yrotation
          JOINT lForeArm
          {
            OFFSET 28.1742 -1.7115 0.48768
            CHANNELS 3 Zrotation Xrotation Yrotation
            JOINT lHand
            {
              OFFSET 22.5879 0.773209 7.07136
              CHANNELS 3 Zrotation Xrotation Yrotation
              JOINT lThumb1
              {
                OFFSET 1.2192 -0.487915 3.41376
                CHANNELS 3 Zrotation Xrotation Yrotation
                JOINT lThumb2
                {
                  OFFSET 3.37035 -0.52449 3.41376
                  CHANNELS 3 Zrotation Xrotation Yrotation
                  End Site
                  {
                    OFFSET 1.78271 -1.18214 1.43049
                  }
                }
              }
              JOINT lIndex1
              {
                OFFSET 7.75947 0.938293 5.60832
                CHANNELS 3 Zrotation Xrotation Yrotation
                JOINT lIndex2
                {
                  OFFSET 2.54057 -0.884171 1.56538
                  CHANNELS 3 Zrotation Xrotation Yrotation
                  End Site
                  {
                    OFFSET 1.62519 -0.234802 1.16502
                  }
                }
              }
              JOINT lMid1
              {
                OFFSET 8.24714 1.18213 3.41376
                CHANNELS 3 Zrotation Xrotation Yrotation
                JOINT lMid2
                {
                  OFFSET 3.10165 -0.590103 1.0647
                  CHANNELS 3 Zrotation Xrotation Yrotation
                  End Site
                  {
                    OFFSET 2.48547 -0.328903 0.83742
                  }
                }
              }
              JOINT lRing1
              {
                OFFSET 8.82822 0.546677 1.51678
                CHANNELS 3 Zrotation Xrotation Yrotation
                JOINT lRing2
                {
                  OFFSET 2.60934 -0.819778 -0.0198488
                  CHANNELS 3 Zrotation Xrotation Yrotation
                  End Site
                  {
                    OFFSET 2.33842 -0.294052 0.168128
                  }
                }
              }
              JOINT lPinky1
              {
                OFFSET 8.27202 -0.0477905 -0.4584
                CHANNELS 3 Zrotation Xrotation Yrotation
                JOINT lPinky2
                {
                  OFFSET 1.82734 -0.647385 -0.700984
                  CHANNELS 3 Zrotation Xrotation Yrotation
                  End Site
                  {
                    OFFSET 1.69225 -0.51767 -0.607171
                  }
                }
              }
            }
          }
        }
      }
    }
  }
  JOINT rButtock
  {
    OFFSET -8.77824 4.35084 1.2192
    CHANNELS 3 Zrotation Xrotation Yrotation
    JOINT rThigh
    {
      OFFSET 0 -1.70687 -2.19456
      CHANNELS 3 Zrotation Xrotation Yrotation
      JOINT rShin
      {
        OFFSET 0 -36.8199 0.73152
        CHANNELS 3 Zrotation Xrotation Yrotation
        JOINT rFoot
        {
          OFFSET 0.73152 -45.1104 -5.12064
          CHANNELS 3 Zrotation Xrotation Yrotation
          End Site
          {
            OFFSET -1.1221 -3.69964 12.103
          }
        }
      }
    }
  }
  JOINT lButtock
  {
    OFFSET 8.77824 4.35084 1.2192
    CHANNELS 3 Zrotation Xrotation Yrotation
    JOINT lThigh
    {
      OFFSET 0 -1.70687 -2.19456
      CHANNELS 3 Zrotation Xrotation Yrotation
      JOINT lShin
      {
        OFFSET 0 -36.8199 0.73152
        CHANNELS 3 Zrotation Xrotation Yrotation
        JOINT lFoot
        {
          OFFSET -0.73152 -45.1104 -5.12064
          CHANNELS 3 Zrotation Xrotation Yrotation
          End Site
          {
            OFFSET 1.1221 -3.69964 12.103
          }
        }
      }
    }
  }
}
MOTION
Frames:	7
Frame Time:	0.03333
0.0 0.0 0.0 0.0 0.0 0.0 0.0 0.0 0.0 0.0 0.0 0.0 0.0 0.0 0.0 0.0 0.0 0.0 0.0 0.0 0.0 0.0 0.0 0.0 0.0 0.0 0.0 0.0 0.0 0.0 0.0 0.0 0.0 0.0 0.0 0.0 0.0 0.0 0.0 0.0 0.0 0.0 0.0 0.0 0.0 0.0 0.0 0.0 0.0 0.0 0.0 0.0 0.0 0.0 0.0 0.0 0.0 0.0 0.0 0.0 0.0 0.0 0.0 0.0 0.0 0.0 0.0 0.0 0.0 0.0 0.0 0.0 0.0 0.0 0.0 0.0 0.0 0.0 0.0 0.0 0.0 0.0 0.0 0.0 0.0 0.0 0.0 0.0 0.0 0.0 0.0 0.0 0.0 0.0 0.0 0.0 0.0 0.0 0.0 0.0 0.0 0.0 0.0 0.0 0.0 0.0 0.0 0.0 0.0 0.0 0.0 0.0 0.0 0.0 0.0 0.0 0.0 0.0 0.0 0.0 0.0 0.0 0.0 0.0 0.0 0.0 0.0 0.0 0.0 0.0 0.0 0.0
-6.6168000000000005 68.3092 -5.415 -163.916631 83.825574 -163.022285 -2.257434 13.973182 -88.077889 6.209633 3.926051 88.645191 -9.238042 21.070836 -24.773771 23.175236 -27.01457 -14.274319 -5.5e-05 -0.0 0.001805 -0.000154 0.0 -0.001799 0.133518 -0.807127 -0.178545 -2.008428 11.652443 47.673088 -60.139871 -26.998574 28.496226 8.204308 -66.009781 -3.555963 -169.149653 -6.830128 89.916414 -126.631064 11.387751 60.907325 -158.230839 -29.847543 122.590342 0.273136 22.398034 -4.357844 -151.47595 17.841202 137.53768 13.432244 -29.984851 -0.996973 -74.84015 72.961644 92.827721 -152.198388 62.49913 162.894626 16.819819 58.94603 12.653743 -85.829477 -53.409004 -84.404068 29.637645 58.070533 -32.038467 112.820573 5.516385 -132.713698 -95.250344 -27.420569 113.898107 56.374517 53.402493 -35.590287 3.029953 2.964198 -0.542835 139.246726 -43.712538 -117.663644 122.652137 23.93149 -103.499837 175.858633 -33.108099 -115.603284 167.375217 -28.008365 -145.269794 -5.125619 -5.876562 0.330262 74.841589 72.95906 -92.828722 3.338942 -62.272024 18.864559 -8.368295 26.426661 -7.362873 147.407936 10.262633 143.225346 -179.983332 75.748602 -0.011404 167.100892 17.984571 -0.0 -28.656694 46.654158 -43.1981 6.320692 32.965998 67.38547 179.988926 75.748523 0.007577 -171.485525 56.402787 169.810777 -31.221732 -69.062808 101.168657 21.38691 -81.866652 101.721927
-10.610700000000001 70.0807 -8.5461 -147.320048 85.988353 -146.978596 -5.605423 16.723382 18.833515 6.130617 -9.93005 -19.775871 -12.975158 29.911666 -76.906652 43.437166 3.137403 29.834817 -0.0001 -0.0 0.0001 -0.0001 -0.0 0.0001 -155.504172 -3.514588 161.83833 93.036624 68.787362 -86.948354 -35.859301 52.731547 123.706837 -5.033644 -41.438673 -8.217574 -93.744063 37.964263 53.548351 -7.996045 -15.130391 27.917784 -1.957579 3.105139 1.141605 122.672366 -61.268511 65.273412 7.902614 -24.80786 -3.013244 -88.750592 64.065219 80.390803 -0.022207 -1.80655 -0.567922 8.762194 18.20651 2.515541 -1.204965 -3.047515 -1.114741 3.30617 2.152676 0.656625 9.65179 34.836233 -11.198891 -169.051013 -61.957902 -101.863859 57.089028 -13.227932 173.31913 -175.026814 -53.841337 -147.375371 103.198946 36.331051 -60.111821 -25.21272 -32.824207 -24.619578 -5.922612 -10.174347 2.967539 65.042395 48.653091 -51.068997 -0.329362 -0.96139 0.180883 88.700671 64.083801 -80.423359 145.108401 3.758104 -179.690067 -10.757242 11.314265 7.638094 -0.100751 0.257968 -0.091122 -36.615701 81.002612 0.087395 -0.001206 0.000206 0.00155 -16.816049 -51.33347 112.969846 47.506835 -11.942119 99.841207 60.994308 -14.027933 -169.049212 0.0 0.000193 -0.000116 0.454478 -16.134666 1.635017 63.807085 66.713657 102.962168 172.526109 21.65595 124.022136
-15.0367 71.76169999999999 -11.8041 -57.411216 86.867017 -56.440697 -4.017248 16.308209 0.968882 10.443262 -8.275694 -7.830827 -10.033306 22.382816 -25.751764 23.710942 -24.231853 -15.533455 -0.002677 0.0 -0.003972 -0.002609 0.0 -0.001004 -6.042528 25.599226 7.23384 55.297973 -45.090435 66.230608 -2.918364 10.399515 103.766242 -8.471903 -22.533959 -5.901425 11.508762 -11.487229 -0.62234 -14.398438 13.797706 5.375623 159.64275 -69.973722 102.396283 -54.849992 55.061637 44.091175 -36.036533 51.722671 29.833237 -158.818796 7.67673 141.48803 -145.119667 0.309626 -179.226692 -155.549642 1.232529 -179.385305 -79.553909 -51.374301 -77.988533 16.665026 42.674051 7.317022 9.652229 34.83599 -11.200003 -39.833952 29.227278 -42.024322 -93.845861 25.754278 -91.616407 94.886421 62.523769 -72.741919 171.652791 -9.3364 -89.950528 -32.627221 -65.524099 -26.630168 138.093531 5.495524 -114.616542 5.752892 25.24935 2.389426 169.12733 -33.357249 -145.373752 34.849851 54.918111 -29.437356 0.000218 -0.018544 0.005601 -1.470338 49.774082 -10.810741 144.26072 9.237613 141.009647 -10.923582 24.741534 -3.782861 -0.003766 0.000814 -0.003766 -10.031632 -48.017468 -7.62471 -7.815283 34.650496 131.232402 35.82328 58.30099 -120.119165 -0.004113 -0.000422 -0.004113 -2.307272 -19.809146 -180.0 -31.784672 -62.964581 123.832684 178.438374 -33.166055 -69.349763
-19.740299999999998 71.9944 -15.0535 -25.387195 80.086704 -22.91716 -2.170082 16.519729 0.5306 10.830024 -9.264633 -10.573401 6.549447 33.122344 118.290793 -36.612249 26.312767 -159.205241 -0.000824 0.0 -0.001059 -0.000877 0.0 -0.003011 0.16294 -0.990133 -0.217854 21.436332 -5.660776 48.622033 95.437299 41.029537 78.457814 -92.088963 62.8398 70.010548 -89.135879 38.42733 50.299353 -147.13033 -28.222924 80.321092 37.217783 -57.917144 -0.640937 -8.465967 32.090954 8.123982 89.034906 -81.393571 59.758904 179.458257 -49.488289 140.939402 -145.121902 1.974238 -179.749268 -71.393127 -78.006856 -92.743238 -158.213503 60.369223 -150.801122 -153.393395 27.74488 -145.197021 155.613712 -4.236189 -161.991766 -136.332177 0.545259 -177.357746 101.28968 -25.274095 -89.127818 -161.49485 -63.786752 -137.519198 4.0343 3.931896 -0.754089 72.518389 24.908853 -67.327426 46.207264 39.653769 -36.317943 17.47724 29.999872 -8.639881 -6.532932 -20.41488 2.720133 -2.326842 2.436435 -0.331175 0.01442 -1.32299 0.41694 156.063774 -15.121532 -173.642125 99.904466 -46.719533 98.118724 125.979776 -30.059049 124.829988 179.979783 75.748127 0.013832 173.763518 22.80579 2.31089 -11.490785 33.040071 -56.448618 50.602115 26.987225 23.395161 179.996563 75.749486 0.003547 175.519315 54.317734 -0.0 10.255697 65.157994 -36.780781 -149.154673 -73.975655 -63.092301
-24.0424 71.55160000000001 -18.9528 -16.137219 70.236489 -13.000412 -1.252004 19.005141 -0.0 10.018657 -10.213369 -10.022117 -13.651384 35.990314 -112.95878 43.522492 28.609336 54.954825 -0.001468 -0.0 0.001126 -0.001468 -0.0 0.001126 -147.865939 28.560012 152.690169 83.160133 65.866473 -100.407845 -16.350506 -65.446229 -168.211336 -173.062315 -5.267324 143.15194 -171.705485 -9.388625 89.949172 103.640435 -65.032561 77.640869 159.638476 -69.972653 102.393646 -153.145202 -8.301006 117.295857 173.123079 -66.297745 137.613834 -7.614311 26.107309 6.325347 -145.100198 -1.521385 -178.650726 12.151206 33.464357 -5.209678 -174.046515 83.751423 -143.363712 14.641522 41.862544 6.886401 143.62017 38.233394 -148.080668 58.743542 5.16821 -35.94641 -174.777039 -40.136108 94.260605 11.168128 3.517435 2.066993 -170.730171 -25.696774 -87.148346 3.142258 -61.572007 3.821619 28.902561 31.61558 -21.338168 -95.362594 -62.492003 -45.643899 -89.034651 -81.393902 -59.758461 156.105206 15.583156 -139.695518 0.015384 -1.323249 0.415228 -11.676886 -36.411217 4.393233 10.077541 -20.71108 9.544152 -53.94409 84.855972 15.631824 -179.998935 75.748982 -0.001099 176.162239 17.778598 1.100713 -2.181475 51.926186 -131.431129 148.829521 -17.474698 -110.281101 -179.993989 75.748982 -0.004946 177.491685 47.958976 -173.864451 -50.800247 -73.504212 -113.999442 -49.660445 40.527385 -59.023329
-28.1472 70.49220000000001 -22.6686 -6.496377 59.668263 -3.02413 -3.447188 16.80615 -129.342593 0.948528 10.294235 119.88092 4.401638 37.780048 146.704199 -30.043983 45.651437 174.397243 -0.000802 0.0 -0.001492 -0.00039 -0.0 0.004222 -6.043012 25.598911 7.235555 82.07921 -38.067152 97.986168 -173.199933 -38.630638 29.362299 -169.055688 4.331608 141.348304 -171.603785 -9.286116 89.949737 11.864711 -59.693269 13.912287 -46.208555 39.652013 36.319369 77.640563 -61.326018 31.714184 -145.286832 29.52392 132.691827 3.286091 0.201706 0.34167 -0.008769 3.55923 1.118305 -78.510766 78.783572 91.640745 -0.290138 -0.753473 -0.268395 -145.845911 6.957354 -142.515916 142.973993 39.431713 -147.390215 -50.621817 -60.409764 -101.881282 175.28962 37.497128 -52.721093 175.518684 -2.896337 -142.742691 -93.028853 -51.084225 -40.500329 34.185475 4.916156 7.847825 123.871004 22.78926 -104.456087 170.822756 -25.093922 -117.041628 89.835962 60.703959 -81.262979 163.083113 -4.779946 -143.156431 70.380118 -72.129869 87.280163 -14.014391 27.612501 0.816841 157.330938 57.246924 150.509326 11.510389 -25.316592 12.936714 179.988237 75.749805 0.010379 179.585865 8.655375 -177.250172 -23.42775 -65.25091 -113.670628 -3.152983 46.566721 -87.410267 -179.977262 75.750485 -0.018709 176.989925 45.129245 -0.0 -29.911615 79.225558 161.547543 178.092321 -10.276109 87.366913
